# xmcd
#
# Track frame offsets:
# 150
# 21126
# 40127
# 59120
# 77137
# 97202
# 116450
# 135131
# 154529
# 171059
# 188693
# 205286
# 225559
#
# Disc length: 3227 seconds
#
# Revision: 0
# Processed by: cddbd v1.5.2PL0 Copyright (c) Steve Scherf et al.
# Submitted via: Audion 3.0.2 (http://www.panic.com/audion/)
#
DISCID=a30c990d
DTITLE=SPARTA LOCALS - MELODY DOROBO and BEAT DEKA
DYEAR=1900
DGENRE=
TTITLE0=urara
TTITLE1=maboroshi FOREVER
TTITLE2=DANCE QUEEN
TTITLE3=perfect song
TTITLE4=hibiya
TTITLE5=CHOCO
TTITLE6=rock to honey
TTITLE7=heibon gang
TTITLE8=tokyo bareriena
TTITLE9=peace
TTITLE10=bakayarou
TTITLE11=mieherHer
TTITLE12=POGO
EXTD=
EXTT0=
EXTT1=
EXTT2=
EXTT3=
EXTT4=
EXTT5=
EXTT6=
EXTT7=
EXTT8=
EXTT9=
EXTT10=
EXTT11=
EXTT12=
PLAYORDER=
